HIERARCHY
ROOT Hip
{
	OFFSET	0.0000	0.0000	0.0000
	CHANNELS 6 Xposition Yposition Zposition Xrotation Yrotation Zrotation
	JOINT LowerSpine
	{
		OFFSET	0.0000	8.3453	-5.1292
		CHANNELS 3 Xrotation Yrotation Zrotation
		JOINT MiddleSpine
		{
			OFFSET	10.8569	0.0000	0.0000
			CHANNELS 3 Xrotation Yrotation Zrotation
			JOINT Chest
			{
				OFFSET	15.2984	0.0000	0.0000
				CHANNELS 3 Xrotation Yrotation Zrotation
				JOINT Neck
				{
					OFFSET	25.6618	-0.5986	0.0000
					CHANNELS 3 Xrotation Yrotation Zrotation
					JOINT Head
					{
						OFFSET	8.8829	0.0000	0.0000
						CHANNELS 3 Xrotation Yrotation Zrotation
						End Site
						{
							OFFSET	19.7399	0.0000	0.0000
						}
					}
				}
				JOINT RClavicle
				{
					OFFSET	23.6878	0.0000	3.1584
					CHANNELS 3 Xrotation Yrotation Zrotation
					JOINT RShoulder
					{
						OFFSET	-15.5945	-3.9480	0.9870
						CHANNELS 3 Xrotation Yrotation Zrotation
						JOINT RForearm
						{
							OFFSET	-31.3370	0.0000	0.1974
							CHANNELS 3 Xrotation Yrotation Zrotation
							JOINT RHand
							{
								OFFSET	-26.4021	0.0000	0.0000
								CHANNELS 3 Xrotation Yrotation Zrotation
								End Site
								{
									OFFSET	-15.7919	-0.9870	0.0000
								}
							}
						}
					}
				}
				JOINT LClavicle
				{
					OFFSET	23.6878	0.0000	-3.1584
					CHANNELS 3 Xrotation Yrotation Zrotation
					JOINT LShoulder
					{
						OFFSET	-15.5945	-3.9480	-0.9870
						CHANNELS 3 Xrotation Yrotation Zrotation
						JOINT LForearm
						{
							OFFSET	-31.3370	0.0000	-0.1974
							CHANNELS 3 Xrotation Yrotation Zrotation
							JOINT LHand
							{
								OFFSET	-26.4021	0.0000	0.0000
								CHANNELS 3 Xrotation Yrotation Zrotation
								End Site
								{
									OFFSET	-15.7919	-0.9870	0.0000
								}
							}
						}
					}
				}
			}
		}
	}
	JOINT RThigh
	{
		OFFSET	-8.8829	0.4481	0.0000
		CHANNELS 3 Xrotation Yrotation Zrotation
		JOINT RShin
		{
			OFFSET	43.1316	0.0000	-0.4935
			CHANNELS 3 Xrotation Yrotation Zrotation
			JOINT RFoot
			{
				OFFSET	0.0000	-44.7256	-0.4047
				CHANNELS 3 Xrotation Yrotation Zrotation
				JOINT RToe
				{
					OFFSET	0.0000	-3.9332	12.1953
					CHANNELS 3 Xrotation Yrotation Zrotation
					End Site
					{
						OFFSET	6.7725	0.0000	0.0000
					}
				}
			}
		}
	}
	JOINT LThigh
	{
		OFFSET	8.8829	0.4481	0.0000
		CHANNELS 3 Xrotation Yrotation Zrotation
		JOINT LShin
		{
			OFFSET	43.1316	0.0000	0.4935
			CHANNELS 3 Xrotation Yrotation Zrotation
			JOINT LFoot
			{
				OFFSET	0.0000	-44.7256	0.4047
				CHANNELS 3 Xrotation Yrotation Zrotation
				JOINT LToe
				{
					OFFSET	0.0000	-3.9332	-12.1953
					CHANNELS 3 Xrotation Yrotation Zrotation
					End Site
					{
						OFFSET	6.7725	0.0000	0.0000
					}
				}
			}
		}
	}
}
MOTION
Frames:	17
Frame Time: 0.0169491000
	0.0000	93.1363	0.0000	0.000000	0.000000	0.000000	-89.999990	-90.000000	0.000000	0.000000	0.000000	0.000000	0.000000	0.000000	0.000000	0.000000	0.000000	0.000000	0.000000	0.000000	0.000000	89.999990	0.000003	-89.999990	0.129889	-2.857029	4.156837	0.255388	4.965908	-5.884634	0.000000	0.000000	0.000000	-89.999990	-0.000003	-89.999990	-0.129889	2.857029	4.156894	-0.255388	-4.965908	-5.884634	0.000000	0.000000	0.000000	-89.999990	90.000000	0.000000	89.999990	-0.000003	89.999990	0.000000	0.000000	0.000000	180.000000	90.000000	0.000000	-89.999990	90.000000	0.000000	-90.000000	-0.000003	89.999990	0.000000	0.000000	0.000000	180.000000	-90.000000	0.000000
	-0.4717	93.6210	-2.1897	-0.350420	0.771352	0.299864	-89.999990	-90.000000	0.000000	-0.070719	-0.046554	-0.000629	-0.181440	-0.097616	-0.009240	0.000000	0.000000	0.000000	0.000000	0.000000	0.000000	89.996260	-0.105265	-88.585230	-7.637037	-2.117115	2.985067	1.098466	12.962350	-6.016322	0.000000	0.000000	0.000000	-89.999630	0.007715	-89.896310	3.553189	0.716421	-0.131508	-1.390169	-15.628590	-6.088369	0.000000	0.000000	0.000000	-100.744600	87.434070	13.069320	89.933880	7.367711	89.996710	-3.697496	-0.547350	-0.219233	174.465600	90.000000	0.000000	11.065970	89.534080	-100.768800	-89.920770	-8.820348	89.997080	3.097805	0.738295	-0.285915	186.201700	-90.000000	0.000000
	-0.4273	93.5156	-2.4184	-0.401974	1.387488	0.876728	-89.999990	-90.000000	0.000000	-0.018572	0.011732	-0.007581	-0.093854	0.015647	-0.032049	0.000000	0.000000	0.000000	0.000000	0.000000	0.000000	89.996560	-0.093057	-88.749220	-17.511100	-4.055177	3.403826	1.690717	18.304490	-6.176098	0.000000	0.000000	0.000000	-90.001800	-0.034957	-90.470150	7.261100	-1.155671	3.075989	-1.131245	-13.265070	-6.023759	0.000000	0.000000	0.000000	-109.020300	87.833110	20.773690	89.927190	8.109428	89.996860	-4.576805	-0.814782	-0.322952	175.223400	90.000000	0.000000	114.368100	89.034360	154.778800	-89.914430	-9.520336	89.997380	3.711751	-0.161325	0.074951	183.841600	-90.000000	0.000000
	-0.3188	93.4350	-2.7137	-0.313949	1.411563	1.533293	-89.999990	-90.000000	0.000000	-0.004725	0.033457	-0.015582	-0.041454	0.103779	-0.061461	0.000000	0.000000	0.000000	0.000000	0.000000	0.000000	89.996860	-0.082001	-88.897750	-27.344870	-5.229366	3.490980	2.268586	23.217240	-6.381124	0.000000	0.000000	0.000000	-90.003720	-0.067197	-90.903900	10.560690	-1.888353	5.593387	-0.989084	-11.946890	-5.992731	0.000000	0.000000	0.000000	-124.408700	88.253300	35.342930	89.919630	8.945474	89.997120	-5.321091	-0.826458	-0.330948	175.911800	90.000000	0.000000	124.688400	87.811040	143.454000	-89.912280	-9.756917	89.997490	3.919546	-0.697514	0.296551	181.832600	-90.000000	0.000000
	-0.2245	93.3941	-2.9352	-0.148467	1.109200	1.975834	-89.999990	-90.000000	0.000000	0.001705	0.047142	-0.022529	-0.032900	0.159320	-0.097002	0.000000	0.000000	0.000000	0.000000	0.000000	0.000000	89.997180	-0.071473	-89.039190	-33.040940	-5.569868	3.660382	2.609617	25.959660	-6.523067	0.000000	0.000000	0.000000	-90.005060	-0.087345	-91.175090	12.427280	-1.646191	6.803608	-0.970729	-11.775730	-5.988958	0.000000	0.000000	0.000000	-140.185500	88.469420	50.446660	89.914670	9.492796	89.997350	-5.886469	-0.453655	-0.182978	176.686700	90.000000	0.000000	124.882600	87.027080	142.599300	-89.911160	-9.881439	89.997560	3.822675	-0.712249	0.300951	180.961400	-90.000000	0.000000
	-0.2016	93.3774	-2.9874	-0.094329	0.878720	2.123314	-89.999990	-90.000000	0.000000	-0.014437	0.063895	-0.042762	-0.052840	0.188006	-0.133149	0.000000	0.000000	0.000000	0.000000	0.000000	0.000000	89.997550	-0.059772	-89.196430	-34.583760	-5.443449	3.926833	2.688526	26.576840	-6.557991	0.000000	0.000000	0.000000	-90.005970	-0.100279	-91.349240	13.510000	-1.095565	7.127870	-1.024601	-12.277490	-6.000184	0.000000	0.000000	0.000000	-148.520900	88.440730	58.713430	89.915760	9.374396	89.997300	-6.246320	-0.145077	-0.054482	177.379000	90.000000	0.000000	124.071600	86.810050	143.144000	-89.908790	-10.142540	89.997700	3.828023	-0.550325	0.223810	180.766900	-90.000000	0.000000
	-0.1857	93.3748	-2.9345	-0.170412	0.825414	2.204535	-89.999990	-90.000000	0.000000	-0.035137	0.068722	-0.055416	-0.083148	0.190169	-0.162945	0.000000	0.000000	0.000000	0.000000	0.000000	0.000000	89.998020	-0.046651	-89.372760	-34.676540	-5.125267	4.123829	2.761127	27.138820	-6.590790	0.000000	0.000000	0.000000	-90.006560	-0.108593	-91.461200	14.538290	-0.502504	7.289986	-1.131251	-13.265120	-6.023760	0.000000	0.000000	0.000000	-154.108300	88.298730	64.638090	89.920030	8.901773	89.997110	-6.293457	-0.347213	-0.130750	177.491000	90.000000	0.000000	122.627900	86.757110	144.696200	-89.908930	-10.126570	89.997700	3.959528	-0.336075	0.119416	180.535000	-90.000000	0.000000
	-0.1171	93.3755	-2.9037	-0.210008	0.933642	2.369586	-89.999990	-90.000000	0.000000	-0.038426	0.057537	-0.058235	-0.110375	0.166010	-0.183683	0.000000	0.000000	0.000000	0.000000	0.000000	0.000000	89.998540	-0.033213	-89.553380	-34.816970	-5.055647	3.912448	3.057141	29.371730	-6.730951	0.000000	0.000000	0.000000	-90.006910	-0.113212	-91.523400	15.211650	0.077175	7.705831	-1.288970	-14.710860	-6.061887	0.000000	0.000000	0.000000	-160.955200	88.282340	71.573570	89.920540	8.845652	89.997080	-6.188228	-0.740600	-0.281409	177.169200	90.000000	0.000000	118.570200	86.626360	148.936200	-89.912300	-9.757030	89.997490	4.138667	0.196511	-0.095728	180.260600	-90.000000	0.000000
	-0.0735	93.3842	-2.9040	-0.206459	0.791936	2.509439	-89.999990	-90.000000	0.000000	-0.035967	0.040880	-0.060106	-0.129505	0.119698	-0.195106	0.000000	0.000000	0.000000	0.000000	0.000000	0.000000	89.999010	-0.021699	-89.708110	-35.276680	-4.843378	3.220221	3.447837	32.174300	-6.930907	0.000000	0.000000	0.000000	-90.007230	-0.117485	-91.581010	15.503370	0.360228	7.955711	-1.477748	-16.416200	-6.112543	0.000000	0.000000	0.000000	-166.103000	88.508900	76.488040	89.916940	9.243093	89.997250	-5.931420	-0.524717	-0.192872	176.775800	90.000000	0.000000	114.373300	86.492510	153.072700	-89.913280	-9.649240	89.997440	4.273956	1.191624	-0.447937	180.194300	-90.000000	0.000000
	-0.1261	93.3991	-2.8898	-0.223756	0.124423	2.566650	-89.999990	-90.000000	0.000000	-0.037232	0.010976	-0.063524	-0.140966	0.060474	-0.195197	0.000000	0.000000	0.000000	0.000000	0.000000	0.000000	89.999320	-0.014466	-89.805320	-36.243250	-3.794445	2.191072	3.754147	34.257070	-7.098730	0.000000	0.000000	0.000000	-90.007640	-0.122860	-91.653370	16.037360	0.264373	7.212767	-1.668653	-18.110700	-6.169204	0.000000	0.000000	0.000000	-167.719100	88.861060	77.928090	89.914300	9.533737	89.997380	-5.805883	0.509552	0.251320	176.833600	90.000000	0.000000	114.902500	86.356590	151.910900	-89.903560	-10.717870	89.998050	4.213330	2.226228	-0.805483	180.494900	-90.000000	0.000000
	-0.1896	93.3889	-2.8876	-0.215419	-0.348595	2.654405	-89.999990	-90.000000	0.000000	-0.040846	-0.005306	-0.057131	-0.143602	-0.002134	-0.178758	0.000000	0.000000	0.000000	0.000000	0.000000	0.000000	89.999560	-0.009331	-89.874480	-37.734880	-2.639244	0.658921	4.141009	36.746430	-7.323445	0.000000	0.000000	0.000000	-90.008220	-0.130448	-91.755590	17.029170	-0.330545	5.463510	-1.860105	-19.777570	-6.231364	0.000000	0.000000	0.000000	-170.994700	89.136600	81.143060	89.913530	9.618822	89.997410	-6.325735	1.533394	0.709962	177.577200	90.000000	0.000000	119.936700	86.049630	145.522400	-89.881210	-13.155450	90.000190	4.210397	2.624931	-0.966405	180.936600	-90.000000	0.000000
	-0.1722	93.3480	-2.9037	-0.193820	-0.111601	2.826331	-89.999990	-90.000000	0.000000	-0.045491	-0.019608	-0.045611	-0.130381	-0.066567	-0.140938	0.000000	0.000000	0.000000	0.000000	0.000000	0.000000	89.999560	-0.009249	-89.875530	-39.483680	-2.237544	-1.429465	4.726534	40.225640	-7.688003	0.000000	0.000000	0.000000	-90.009360	-0.144652	-91.946950	18.277630	-1.689734	3.320996	-2.073943	-21.598660	-6.306919	0.000000	0.000000	0.000000	178.943600	89.279980	91.161090	89.912840	9.693648	89.997460	-7.008404	1.704996	0.796165	178.102300	90.000000	0.000000	125.741200	85.539980	137.958800	-89.852030	-16.280270	90.004410	4.712009	2.488038	-0.949697	180.925600	-90.000000	0.000000
	-0.1356	93.2915	-2.9209	-0.159606	0.274981	2.986898	-89.999990	-90.000000	0.000000	-0.030761	-0.047932	-0.020869	-0.090633	-0.144191	-0.082212	0.000000	0.000000	0.000000	0.000000	0.000000	0.000000	89.999490	-0.010881	-89.853590	-41.150850	-2.044647	-3.636403	5.322756	43.433120	-8.085789	0.000000	0.000000	0.000000	-90.011100	-0.165250	-92.224590	19.640720	-3.594618	0.812098	-2.290325	-23.395650	-6.389725	0.000000	0.000000	0.000000	168.464700	89.364280	101.582100	89.912770	9.703037	89.997470	-7.310415	1.211648	0.580063	178.062700	90.000000	0.000000	131.947800	84.940820	129.782000	-89.818800	-19.743060	90.011150	5.537672	2.365144	-0.901929	180.458600	-90.000000	0.000000
	-0.1557	93.2212	-2.9622	-0.042296	0.437994	3.052776	-89.999990	-90.000000	0.000000	-0.006441	-0.080280	0.000311	-0.016181	-0.256055	-0.009580	0.000000	0.000000	0.000000	0.000000	0.000000	0.000000	89.999580	-0.008948	-89.879640	-42.707060	-1.537989	-5.803381	5.756867	45.571810	-8.390129	0.000000	0.000000	0.000000	-90.013410	-0.191004	-92.571910	20.957540	-6.017885	-2.121595	-2.384300	-24.161290	-6.427617	0.000000	0.000000	0.000000	164.638300	89.452910	105.313000	89.914000	9.565765	89.997400	-7.522972	0.716044	0.354527	178.165500	90.000000	0.000000	139.012800	84.251130	120.633700	-89.783860	-23.252160	90.020380	5.855476	2.074672	-0.744960	180.248600	-90.000000	0.000000
	-0.1807	93.1419	-3.0088	0.084839	0.709154	3.050450	-89.999990	-90.000000	0.000000	0.028737	-0.129365	0.022484	0.094015	-0.423128	0.067064	0.000000	0.000000	0.000000	0.000000	0.000000	0.000000	89.999710	-0.006101	-89.917850	-44.133860	-1.080346	-8.185008	5.971787	46.573360	-8.544924	0.000000	0.000000	0.000000	-90.016280	-0.220766	-92.973510	22.047360	-9.390357	-4.819942	-2.241262	-22.992320	-6.370402	0.000000	0.000000	0.000000	166.658800	89.544760	103.154900	89.914100	9.554457	89.997400	-7.903575	0.267106	0.149096	178.525300	90.000000	0.000000	144.697800	83.574750	112.833900	-89.748520	-26.645180	90.031830	4.860408	1.252944	-0.400863	181.505400	-90.000000	0.000000
	-0.1378	93.0668	-3.0273	0.117316	1.241915	3.046377	-89.999990	-90.000000	0.000000	0.070217	-0.197955	0.042517	0.233437	-0.656550	0.139486	0.000000	0.000000	0.000000	0.000000	0.000000	0.000000	89.999800	-0.004194	-89.943530	-45.291420	-0.975418	-10.741810	5.922030	46.344750	-8.508856	0.000000	0.000000	0.000000	-90.019700	-0.253675	-93.417910	22.896340	-13.465380	-6.982610	-1.984239	-20.840080	-6.274451	0.000000	0.000000	0.000000	165.177200	89.630390	104.421700	89.910590	9.940790	89.997600	-8.317031	-0.385120	-0.164564	178.711900	90.000000	0.000000	146.840800	83.167520	108.323000	-89.707780	-30.343620	90.047490	2.304409	0.460689	-0.174501	185.356100	-90.000000	0.000000
	-0.0476	93.0099	-3.0346	0.094768	1.706989	3.046342	-89.999990	-90.000000	0.000000	0.116762	-0.286228	0.060271	0.390608	-0.953235	0.202853	0.000000	0.000000	0.000000	0.000000	0.000000	0.000000	89.999680	-0.006649	-89.910480	-46.200510	-0.935949	-13.037590	5.665239	45.133510	-8.324940	0.000000	0.000000	0.000000	-90.023550	-0.288095	-93.883110	23.789350	-17.221950	-9.194704	-1.901579	-20.134180	-6.245519	0.000000	0.000000	0.000000	153.385400	89.703540	116.009300	89.906570	10.382510	89.997860	-8.563526	-0.990464	-0.463764	178.700900	90.000000	0.000000	147.049800	82.943480	105.723500	-89.664540	-34.008500	90.066770	-0.459032	0.620903	-0.274641	189.490000	-90.000000	0.000000
